{"title":"Misconduct.2016 BluRay 720p H264 AAC [ITRG][IndexTorrent]","uid":14385962,"size":1481505343,"categoryP":"video","categoryS":"hd___movies","magnet":"?xt=urn:btih:00ca5a6e3a4e5ce4304a129c162086ca4d7ede22&amp;dn=Misconduct.2016+BluRay+720p+H264+AAC+%5BITRG%5D%5BIndexTorrent%5D&amp;tr=udp%3A%2F%2Ftracker.leechers-paradise.org%3A6969&amp;tr=udp%3A%2F%2Fzer0day.ch%3A1337&amp;tr=udp%3A%2F%2Fopen.demonii.com%3A1337&amp;tr=udp%3A%2F%2Ftracker.coppersurfer.tk%3A6969&amp;tr=udp%3A%2F%2Fexodus.desync.com%3A6969","seeders":5,"leechers":1,"uploader":"ITRG","files":5,"time":1461276907,"description":"screen shots \nhttp://extraimago.com/images/2016/04/21/174e1d.jpg \nhttp://extraimago.com/images/2016/04/21/22d598.jpg \nhttp://extraimago.com/images/2016/04/21/30dba6.jpg\r\n\r\nGeneral\r\nUnique ID                   : 29174027505298419507027153722385074705 (0x15F2B69BF2C79FDE77DB3AE65E038A11)\r\nComplete name               : C:BDConvertedMisconduct.2016Misconduct.2016 BluRay 720p H264 AAC [ITRG][IndexTorrent.com]Misconduct.2016 BluRay 720p H264 AAC [ITRG][IndexTorrent.com].mkv\r\nFormat                      : Matroska\r\nFormat version              : Version 2\r\nFile size                   : 1.38 GiB\r\nDuration                    : 1h 45mn\r\nOverall bit rate            : 1 865 Kbps\r\nEncoded date                : UTC 2016-04-13T08:48:35Z\r\nWriting application         : HandBrake 0.10.3 2016012200\r\nWriting library             : Lavf55.12.0 / Lavf55.12.0\r\n\r\nVideo\r\nID                          : 1\r\nFormat                      : AVC\r\nFormat/Info                 : Advanced Video Codec\r\nFormat profile              :   \r\nFormat settings, CABAC      : Yes\r\nFormat settings, ReFrames   : 4 frames\r\nCodec ID                    : V_MPEG4/ISO/AVC\r\nDuration                    : 1h 45mn\r\nBit rate                    : 1 800 Kbps\r\nWidth                       : 1 920 pixels\r\nHeight                      : 532 pixels\r\nDisplay aspect ratio        : 3.609\r\nFrame rate mode             : Constant\r\nFrame rate                  : 23.976 (24000/1001) fps\r\nColor space                 : YUV\r\nChroma subsampling          : 4:2:0\r\nBit depth                   : 8 bits\r\nScan type                   : Progressive\r\nBits/(Pixel*Frame)          : 0.073\r\nStream size                 : 1.28 GiB (93%)\r\n\r\nDefault                     : Yes\r\nForced                      : No\r\nColor range                 : Limited\r\nColor primaries             : BT.709\r\nTransfer characteristics    : BT.709\r\nMatrix coefficients         : BT.709\r\n\r\nAudio\r\nID                          : 2\r\nFormat                      : AC-3\r\nFormat/Info                 : Audio Coding 3\r\nMode extension              : CM (complete main)\r\nFormat settings, Endianness : Big\r\nCodec ID                    : A_AC3\r\nDuration                    : 1h 45mn\r\nBit rate mode               : Constant\r\nBit rate                    : 96.0 Kbps\r\nChannel(s)                  : 2 channels\r\nChannel positions           : Front: L R\r\nSampling rate               : 48.0 KHz\r\nFrame rate                  : 31.250 fps (1536 spf)\r\nCompression mode            : Lossy\r\nDelay relative to video     : -5ms\r\nStream size                 : 72.7 MiB (5%)\r\nTitle                       : Stereo\r\nLanguage                    : English\r\nDefault                     : Yes\r\nForced                      : No","torrent":{"xt":"urn:btih:00ca5a6e3a4e5ce4304a129c162086ca4d7ede22","amp;dn":"Misconduct.2016+BluRay+720p+H264+AAC+%5BITRG%5D%5BIndexTorrent%5D","amp;tr":["udp%3A%2F%2Ftracker.leechers-paradise.org%3A6969","udp%3A%2F%2Fzer0day.ch%3A1337","udp%3A%2F%2Fopen.demonii.com%3A1337","udp%3A%2F%2Ftracker.coppersurfer.tk%3A6969","udp%3A%2F%2Fexodus.desync.com%3A6969"],"infoHash":"00ca5a6e3a4e5ce4304a129c162086ca4d7ede22","infoHashBuffer":{"type":"Buffer","data":[0,202,90,110,58,78,92,228,48,74,18,156,22,32,134,202,77,126,222,34]},"announce":[],"urlList":[]}}